<?xml version="1.0" encoding="iso-8859-1"?>
<!-- Generator: Adobe Illustrator 18.0.0, SVG Export Plug-In . SVG Version: 6.00 Build 0)  -->
<!DOCTYPE svg PUBLIC "-//W3C//DTD SVG 1.1//EN" "http://www.w3.org/Graphics/SVG/1.1/DTD/svg11.dtd">
<svg version="1.1" id="Capa_1" xmlns="http://www.w3.org/2000/svg" xmlns:xlink="http://www.w3.org/1999/xlink" x="0px" y="0px"
	 viewBox="0 0 499.137 499.137" style="enable-background:new 0 0 499.137 499.137;" xml:space="preserve">
<g>
	<path fill="#d9541e" d="M493.48,35.044L464.094,5.665c-7.55-7.548-19.776-7.548-27.322,0l-39.465,39.458l-3.293-3.289
		c-3.096-3.098-7.306-4.839-11.673-4.839c-4.371,0-8.582,1.742-11.678,4.839L36.792,375.702c-1.806,1.806-3.16,4.001-3.985,6.426
		L0.86,477.366c-1.999,5.936-0.451,12.5,3.985,16.927c3.142,3.153,7.371,4.839,11.673,4.839c1.76,0,3.533-0.283,5.261-0.856
		l95.237-31.957c2.419-0.815,4.611-2.179,6.417-3.985l333.852-333.852c6.454-6.452,6.454-16.901,0-23.354l-3.275-3.291l39.47-39.465
		c3.625-3.628,5.657-8.541,5.657-13.668C499.137,43.582,497.105,38.665,493.48,35.044z M58.439,409.628l31.063,31.079L42.73,456.399
		L58.439,409.628z M111.452,427.612l-39.916-39.926L382.34,76.872l39.917,39.933L111.452,427.612z"/>
	<path fill="#d9541e" d="M457.511,165.391l-159.44,159.452c-6.454,6.452-6.454,16.902,0,23.354c3.225,3.225,7.449,4.839,11.673,4.839
		c4.229,0,8.454-1.615,11.678-4.839l159.445-159.452c6.449-6.452,6.449-16.902,0-23.354
		C474.413,158.94,463.965,158.94,457.511,165.391z"/>
</g>
<g>
</g>
<g>
</g>
<g>
</g>
<g>
</g>
<g>
</g>
<g>
</g>
<g>
</g>
<g>
</g>
<g>
</g>
<g>
</g>
<g>
</g>
<g>
</g>
<g>
</g>
<g>
</g>
<g>
</g>
</svg>
