<?xml version="1.0" encoding="iso-8859-1"?>
<!-- Generator: Adobe Illustrator 19.0.0, SVG Export Plug-In . SVG Version: 6.00 Build 0)  -->
<svg version="1.1" id="Layer_1" xmlns="http://www.w3.org/2000/svg" xmlns:xlink="http://www.w3.org/1999/xlink" x="0px" y="0px"
	 viewBox="0 0 512 512" style="enable-background:new 0 0 512 512;" xml:space="preserve">
<path style="fill:#8CCFDE;" d="M418.217,237.388c-0.608,0-1.209,0.033-1.814,0.046c0.587-4.804,0.894-9.694,0.894-14.656
	c0-66.09-53.577-119.668-119.668-119.668c-41.65,0-78.324,21.282-99.757,53.56c-17.33-8.309-36.746-12.965-57.249-12.965
	C67.396,143.705,8.032,203.069,8.032,276.298S67.396,408.89,140.623,408.89h277.593c47.359,0,85.751-38.392,85.751-85.751
	C503.968,275.781,465.577,237.388,418.217,237.388z"/>
<path style="opacity:0.1;enable-background:new    ;" d="M437.852,389.255H160.259c-73.229,0-132.593-59.364-132.593-132.592
	c0-31.613,11.07-60.636,29.536-83.421C27.21,197.551,8.032,234.682,8.032,276.298c0,73.229,59.364,132.592,132.592,132.592h277.593
	c28.692,0,54.074-14.106,69.64-35.745C473.779,383.272,456.519,389.255,437.852,389.255z"/>
<path style="opacity:0.1;enable-background:new    ;" d="M253.239,191.7c-5.176-21.965-17.011-42.7-33.411-59.83
	c-8.408,7.204-15.811,15.548-21.954,24.801c-0.595-0.286,31.946,16.571,47.807,38.721
	C248.375,199.155,254.301,196.205,253.239,191.7z"/>
<path style="fill:#8CCFDE;" d="M425.147,229.61c0.121-2.282,0.183-4.563,0.183-6.832c0-70.413-57.285-127.7-127.7-127.7
	c-40.605,0-78.431,19.144-102.51,51.545c-17.241-7.27-35.539-10.951-54.496-10.951C63.084,135.674,0,198.757,0,276.297
	s63.084,140.625,140.625,140.625h277.593c51.711,0,93.783-42.07,93.783-93.783C512,273.757,473.637,233.167,425.147,229.61z
	 M418.217,400.858H140.625c-68.683,0-124.561-55.878-124.561-124.561s55.878-124.56,124.561-124.56
	c18.771,0,36.808,4.073,53.613,12.1c3.298,1.781,31.341,17.279,44.911,36.23c1.568,2.19,4.034,3.356,6.537,3.356
	c1.619,0,3.253-0.488,4.669-1.501c3.607-2.583,4.438-7.6,1.854-11.206c-11.65-16.272-31.263-29.657-42.619-36.559
	c21.106-27.076,53.414-43.015,88.04-43.015c61.557,0,111.636,50.079,111.636,111.636c0,4.543-0.282,9.147-0.834,13.683
	c-0.283,2.313,0.453,4.635,2.016,6.362c1.564,1.728,3.792,2.709,6.13,2.641l0.78-0.022c0.286-0.01,0.571-0.021,0.86-0.021
	c42.855,0,77.719,34.865,77.719,77.719S461.073,400.858,418.217,400.858z"/>
<g>
</g>
<g>
</g>
<g>
</g>
<g>
</g>
<g>
</g>
<g>
</g>
<g>
</g>
<g>
</g>
<g>
</g>
<g>
</g>
<g>
</g>
<g>
</g>
<g>
</g>
<g>
</g>
<g>
</g>
</svg>
