<?xml version="1.0" encoding="iso-8859-1"?>
<!-- Generator: Adobe Illustrator 19.0.0, SVG Export Plug-In . SVG Version: 6.00 Build 0)  -->
<svg version="1.1" id="Layer_1" xmlns="http://www.w3.org/2000/svg" xmlns:xlink="http://www.w3.org/1999/xlink" x="0px" y="0px"
	 viewBox="0 0 511.984 511.984" style="enable-background:new 0 0 511.984 511.984;" xml:space="preserve">
<path style="fill:#8CCFDE;" d="M351.989,53.327c-46.123,0-87.685,19.53-116.871,50.748C219.463,86.06,196.4,74.67,170.651,74.67
	c-47.124,0-85.325,38.202-85.325,85.325c0,0.719,0.016,1.422,0.031,2.125C36.655,171.995,0,215.041,0,266.664
	c0,58.903,47.749,106.652,106.653,106.652h245.336c88.356,0,159.995-71.622,159.995-159.994
	C511.984,124.965,440.346,53.327,351.989,53.327z"/>
<path style="fill:#AAB2BC;" d="M453.954,90.029c22.922,27.686,36.688,63.217,36.688,101.965
	c0,88.356-71.622,159.995-159.995,159.995H85.326c-24.016,0-46.171-7.938-63.998-21.328c19.452,25.906,50.436,42.655,85.325,42.655
	h245.336c88.356,0,159.995-71.622,159.995-159.994C511.984,163.714,489.391,119.371,453.954,90.029z"/>
<g>
	<path style="fill:#4A89DC;" d="M319.304,415.987c-1.813,0-3.641-0.453-5.313-1.422l-147.809-85.342
		c-5.094-2.938-6.843-9.468-3.906-14.562c2.953-5.109,9.469-6.859,14.578-3.906l147.792,85.325
		c5.109,2.953,6.844,9.469,3.906,14.578C326.584,414.081,322.99,415.987,319.304,415.987z"/>
	<path style="fill:#4A89DC;" d="M199.228,346.661c-4.719,0-9.031-3.141-10.297-7.906l-7.813-29.14
		c-1.53-5.702,1.844-11.546,7.547-13.062c5.688-1.531,11.531,1.844,13.063,7.531l7.797,29.139
		c1.531,5.703-1.844,11.547-7.531,13.063C201.072,346.536,200.135,346.661,199.228,346.661z"/>
	<path style="fill:#4A89DC;" d="M170.089,354.473c-4.719,0-9.031-3.156-10.296-7.922c-1.531-5.688,1.843-11.531,7.53-13.063
		l29.14-7.797c5.703-1.531,11.547,1.844,13.063,7.531c1.531,5.703-1.844,11.547-7.531,13.063l-29.14,7.813
		C171.932,354.348,170.995,354.473,170.089,354.473z"/>
	<path style="fill:#4A89DC;" d="M299.397,429.128c-4.703,0-9.016-3.141-10.281-7.906l-7.813-29.141
		c-1.531-5.688,1.844-11.53,7.531-13.062c5.703-1.531,11.547,1.859,13.078,7.546l7.797,29.141
		c1.531,5.688-1.844,11.531-7.531,13.063C301.241,429.018,300.319,429.128,299.397,429.128z"/>
	<path style="fill:#4A89DC;" d="M291.6,399.987c-4.719,0-9.016-3.141-10.297-7.906c-1.531-5.688,1.844-11.53,7.531-13.062
		l29.156-7.813c5.687-1.516,11.53,1.859,13.062,7.547c1.516,5.687-1.859,11.53-7.547,13.062l-29.14,7.813
		C293.444,399.878,292.507,399.987,291.6,399.987z"/>
	<path style="fill:#4A89DC;" d="M171.526,415.987c-3.688,0-7.266-1.906-9.25-5.328c-2.937-5.109-1.188-11.625,3.906-14.578
		l147.809-85.325c5.094-2.953,11.624-1.203,14.562,3.906c2.938,5.094,1.203,11.624-3.906,14.562l-147.792,85.342
		C175.167,415.534,173.339,415.987,171.526,415.987z"/>
	<path style="fill:#4A89DC;" d="M199.244,399.987c-0.922,0-1.844-0.109-2.781-0.359l-29.14-7.813
		c-5.688-1.531-9.062-7.375-7.53-13.062c1.515-5.688,7.358-9.063,13.062-7.547l29.14,7.813c5.688,1.531,9.063,7.374,7.531,13.062
		C208.26,396.846,203.947,399.987,199.244,399.987z"/>
	<path style="fill:#4A89DC;" d="M191.431,429.128c-0.922,0-1.844-0.109-2.766-0.359c-5.703-1.531-9.077-7.375-7.547-13.063
		l7.813-29.141c1.516-5.687,7.375-9.077,13.063-7.546s9.063,7.374,7.531,13.062l-7.797,29.141
		C200.447,425.987,196.135,429.128,191.431,429.128z"/>
	<path style="fill:#4A89DC;" d="M320.757,354.473c-0.922,0-1.844-0.125-2.766-0.375l-29.156-7.813
		c-5.688-1.516-9.063-7.359-7.531-13.063c1.516-5.688,7.375-9.063,13.063-7.531l29.14,7.797c5.688,1.531,9.063,7.375,7.547,13.063
		C329.771,351.317,325.459,354.473,320.757,354.473z"/>
	<path style="fill:#4A89DC;" d="M291.616,346.661c-0.922,0-1.844-0.125-2.781-0.375c-5.688-1.516-9.063-7.359-7.531-13.063
		l7.813-29.139c1.516-5.688,7.375-9.063,13.063-7.531c5.688,1.516,9.063,7.359,7.531,13.062l-7.797,29.14
		C300.632,343.52,296.319,346.661,291.616,346.661z"/>
</g>
<g>
	<path style="fill:#5D9CEC;" d="M245.414,458.657c-5.89,0-10.671-4.781-10.671-10.671V277.319c0-5.89,4.781-10.655,10.671-10.655
		c5.891,0,10.672,4.766,10.672,10.655v170.667C256.086,453.876,251.305,458.657,245.414,458.657z"/>
	<path style="fill:#5D9CEC;" d="M245.414,319.99c-2.734,0-5.453-1.047-7.546-3.125c-4.156-4.172-4.156-10.921,0-15.077
		l21.344-21.344c4.155-4.155,10.921-4.155,15.077,0c4.172,4.172,4.172,10.922,0,15.094l-21.328,21.327
		C250.883,318.943,248.148,319.99,245.414,319.99z"/>
	<path style="fill:#5D9CEC;" d="M245.414,319.99c-2.734,0-5.453-1.047-7.546-3.125l-21.327-21.327
		c-4.172-4.172-4.172-10.922,0-15.094c4.171-4.155,10.921-4.155,15.077,0l21.343,21.344c4.157,4.156,4.157,10.905,0,15.077
		C250.883,318.943,248.148,319.99,245.414,319.99z"/>
	<path style="fill:#5D9CEC;" d="M224.087,447.986c-2.734,0-5.468-1.047-7.546-3.125c-4.172-4.171-4.172-10.921,0-15.077
		l21.327-21.344c4.171-4.156,10.921-4.156,15.093,0c4.157,4.172,4.157,10.922,0,15.094l-21.343,21.327
		C229.54,446.939,226.805,447.986,224.087,447.986z"/>
	<path style="fill:#5D9CEC;" d="M266.742,447.986c-2.719,0-5.453-1.047-7.53-3.125l-21.344-21.327
		c-4.156-4.172-4.156-10.922,0-15.094c4.171-4.156,10.921-4.156,15.093,0l21.328,21.344c4.172,4.156,4.172,10.906,0,15.077
		C272.211,446.939,269.476,447.986,266.742,447.986z"/>
</g>
<g>
</g>
<g>
</g>
<g>
</g>
<g>
</g>
<g>
</g>
<g>
</g>
<g>
</g>
<g>
</g>
<g>
</g>
<g>
</g>
<g>
</g>
<g>
</g>
<g>
</g>
<g>
</g>
<g>
</g>
</svg>
