<?xml version="1.0" encoding="iso-8859-1"?>
<!-- Generator: Adobe Illustrator 19.0.0, SVG Export Plug-In . SVG Version: 6.00 Build 0)  -->
<svg version="1.1" id="Layer_1" xmlns="http://www.w3.org/2000/svg" xmlns:xlink="http://www.w3.org/1999/xlink" x="0px" y="0px"
	 viewBox="0 0 496.2 496.2" style="enable-background:new 0 0 496.2 496.2;" xml:space="preserve">
<path style="fill:transparent;" d="M496.2,248.1C496.2,111.1,385.1,0,248.1,0S0,111.1,0,248.1s111.1,248.1,248.1,248.1
	S496.2,385.1,496.2,248.1z"/>
<g>
	
		<rect x="320.556" y="120.159" transform="matrix(0.8731 0.4876 -0.4876 0.8731 110.0125 -139.9963)" style="fill:#FFFFFF;" width="6.7" height="42.301"/>
	<path style="fill:#FFFFFF;" d="M338.3,393l-11.5-36.8c-0.3-1-1.1-1.9-2.1-2.2c-1-0.4-2.2-0.2-3.1,0.4l-17.2,11.5
		c-0.9,0.6-1.5,1.6-1.5,2.6c-0.1,1.1,0.4,2.1,1.2,2.8l28.7,25.3c0.6,0.6,1.5,0.9,2.3,0.9c0.6,0,1.3-0.2,1.9-0.6
		C338.2,396.1,338.8,394.5,338.3,393z"/>
	<path style="fill:#FFFFFF;" d="M188.7,365.9l-17.2-11.5c-0.9-0.6-2-0.7-3.1-0.4c-1,0.4-1.8,1.2-2.1,2.2L154.8,393
		c-0.5,1.5,0.1,3.1,1.4,3.9c0.6,0.4,1.2,0.6,1.9,0.6c0.8,0,1.6-0.3,2.3-0.9l28.7-25.3c0.8-0.7,1.2-1.7,1.2-2.8
		C190.2,367.5,189.6,366.5,188.7,365.9z"/>
	
		<rect x="171.312" y="120.198" transform="matrix(-0.8731 0.4876 -0.4876 -0.8731 396.0742 179.5943)" style="fill:#FFFFFF;" width="6.7" height="42.301"/>
</g>
<circle style="fill:#CC584C;" cx="248.1" cy="261.2" r="128.7"/>
<path style="fill:#FFFFFF;" d="M139.3,261.2c0-60.1,48.7-108.8,108.8-108.8s108.8,48.7,108.8,108.8s-48.7,108.7-108.8,108.7
	S139.3,321.2,139.3,261.2z"/>
<path d="M248.1,265.8c-2.5,0-4.6-2.1-4.6-4.6v-49c0-2.5,2.1-4.6,4.6-4.6s4.6,2.1,4.6,4.6v49C252.7,263.7,250.6,265.8,248.1,265.8z"
	/>
<path d="M308.6,325.2c-0.9,0-1.8-0.3-2.4-1l-60.4-60.4c-1.3-1.3-1.3-3.5,0-4.9c1.3-1.3,3.5-1.3,4.9,0l60.4,60.4
	c1.3,1.3,1.3,3.5,0,4.9C310.3,324.8,309.4,325.2,308.6,325.2z"/>
<path style="fill:#136882;" d="M172.4,299.2c-0.9,0-1.7-0.5-2.1-1.3c-0.5-1.1,0-2.5,1.1-3.1l94.2-44.2c1.2-0.5,2.5,0,3.1,1.1
	c0.5,1.1,0,2.5-1.1,3.1L173.4,299C173.1,299.2,172.8,299.2,172.4,299.2z"/>
<circle cx="248.1" cy="261.2" r="10.7"/>
<circle style="fill:#FFFFFF;" cx="248.1" cy="261.2" r="6.1"/>
<circle style="fill:#136882;" cx="267.7" cy="252" r="3.4"/>
<g>
	<path style="fill:#CC584C;" d="M225.5,117.6l-96.6,52.6c-11.4-20.9,0.9-49.7,27.6-64.2C183.3,91.4,214.1,96.6,225.5,117.6z"/>
	<circle style="fill:#CC584C;" cx="156.6" cy="106" r="7.3"/>
	<path style="fill:#CC584C;" d="M274,117.6l96.6,52.6c11.4-20.9-0.9-49.7-27.6-64.2C316.3,91.4,285.4,96.6,274,117.6z"/>
	<circle style="fill:#CC584C;" cx="343" cy="106" r="7.3"/>
</g>
<g>
</g>
<g>
</g>
<g>
</g>
<g>
</g>
<g>
</g>
<g>
</g>
<g>
</g>
<g>
</g>
<g>
</g>
<g>
</g>
<g>
</g>
<g>
</g>
<g>
</g>
<g>
</g>
<g>
</g>
</svg>
