<?xml version="1.0" ?><!DOCTYPE svg  PUBLIC '-//W3C//DTD SVG 1.1//EN'  'http://www.w3.org/Graphics/SVG/1.1/DTD/svg11.dtd'><svg enable-background="new 0 0 75 75" height="75px" version="1.1" viewBox="0 0 75 75" width="75px" xml:space="preserve" xmlns="http://www.w3.org/2000/svg" xmlns:xlink="http://www.w3.org/1999/xlink"><g id="Layer_1"><g><g><g><path d="M18.051,57.221c3.746,6.896,11.053,11.578,19.449,11.578c8.398,0,15.705-4.682,19.449-11.578H18.051z" fill="#EE8313"/></g><g><path d="M23.516,57.221c2.693,6.896,7.947,11.578,13.984,11.578c6.039,0,11.293-4.682,13.986-11.578H23.516z" fill="#EE8313"/></g><g><g><polygon fill="#D8D5AD" points="45.439,57.221 29.562,57.221 29.562,33.004 45.439,25.764      "/></g><g><path d="M29.562,41.584v4.971v3.832c0,1.461,1.184,2.646,2.645,2.646c1.463,0,2.646-1.186,2.646-2.646v-3.832       v-1.859c0-1.461,1.186-2.646,2.646-2.646s2.646,1.186,2.646,2.646v1.859v1.871c0,1.461,1.186,2.646,2.646,2.646       c1.463,0,2.646-1.186,2.646-2.646v-1.871v-6.932V28.135l-15.877,7.24V41.584z" fill="#C1BC91"/></g><g><path d="M29.562,39.213v4.971v3.832c0,1.461,1.184,2.646,2.645,2.646c1.463,0,2.646-1.186,2.646-2.646v-3.832       v-1.859c0-1.461,1.186-2.646,2.646-2.646s2.646,1.186,2.646,2.646v1.859v1.871c0,1.461,1.186,2.646,2.646,2.646       c1.463,0,2.646-1.186,2.646-2.646v-1.871v-6.932V25.764l-15.877,7.24V39.213z" fill="#FFFFFF"/></g><g><path d="M29.562,39.213v3.279v1.691v3.279v0.553c0,1.461,1.184,2.646,2.645,2.646       c1.463,0,2.646-1.186,2.646-2.646v-0.553v-1.859v-1.42v-1.859c0-1.461,1.186-2.646,2.646-2.646s2.646,1.186,2.646,2.646v1.859       v1.42v0.451c0,1.461,1.186,2.646,2.646,2.646c1.463,0,2.646-1.186,2.646-2.646v-1.871v-3.65v-3.281v-8.209l-15.877,7.242       V39.213z" fill="#F7F5DC"/></g><g><g><path d="M42.793,46.438c-1.461,0-2.646-1.186-2.646-2.646v0.393v1.42v0.451c0,1.461,1.186,2.646,2.646,2.646        c1.463,0,2.646-1.186,2.646-2.646v-1.871v-0.393C45.439,45.252,44.256,46.438,42.793,46.438z" fill="#D8D5AD"/></g><g><path d="M32.207,48.398c-1.461,0-2.645-1.186-2.645-2.646v1.711v0.553c0,1.461,1.184,2.646,2.645,2.646        c1.463,0,2.646-1.186,2.646-2.646v-0.553v-1.711C34.854,47.213,33.67,48.398,32.207,48.398z" fill="#D8D5AD"/></g><g><path d="M40.146,41.92v-1.859c0-1.461-1.186-2.646-2.646-2.646s-2.646,1.186-2.646,2.646v1.859v0.404        c0-1.461,1.186-2.646,2.646-2.646s2.646,1.186,2.646,2.646V41.92z" fill="#D8D5AD"/></g></g><g><path d="M37.5,6.201c-3.645,1.455-6.223,5.012-6.223,9.174c0,4.164,2.578,7.719,6.223,9.174       c3.645-1.455,6.225-5.01,6.225-9.174C43.725,11.213,41.145,7.656,37.5,6.201z" fill="#FFB841"/></g><g><path d="M37.5,12.385c-2.416,0.963-4.125,3.322-4.125,6.082c0,2.762,1.709,5.119,4.125,6.082       c2.416-0.963,4.127-3.32,4.127-6.082C41.627,15.707,39.916,13.348,37.5,12.385z" fill="#EE8313"/></g></g></g><g><g><path d="M37.5,69.549c-8.393,0-16.098-4.587-20.108-11.97c-0.126-0.232-0.121-0.514,0.015-0.741      c0.135-0.228,0.38-0.367,0.645-0.367h38.898c0.265,0,0.51,0.139,0.645,0.367c0.135,0.227,0.141,0.509,0.015,0.741      C53.6,64.962,45.895,69.549,37.5,69.549z M19.355,57.971c3.892,6.248,10.731,10.078,18.145,10.078      c7.415,0,14.255-3.831,18.146-10.078H19.355z" fill="#093260"/></g><g><g><path d="M45.439,57.971H29.562c-0.414,0-0.75-0.336-0.75-0.75V33.004c0-0.294,0.172-0.561,0.438-0.683       l15.877-7.24c0.234-0.105,0.504-0.086,0.717,0.052c0.215,0.138,0.345,0.375,0.345,0.631v31.457       C46.189,57.635,45.854,57.971,45.439,57.971z M30.312,56.471h14.377V26.93l-14.377,6.556V56.471z" fill="#093260"/></g><g><path d="M32.207,51.412c-1.872,0-3.395-1.523-3.395-3.396V33.004c0-0.294,0.172-0.561,0.438-0.683l15.877-7.24       c0.234-0.105,0.504-0.086,0.717,0.052c0.215,0.138,0.345,0.375,0.345,0.631v20.291c0,1.873-1.523,3.396-3.396,3.396       s-3.396-1.523-3.396-3.396v-3.73c0-1.046-0.851-1.896-1.896-1.896s-1.896,0.851-1.896,1.896v5.691       C35.604,49.889,34.08,51.412,32.207,51.412z M30.312,33.486v14.529c0,1.046,0.85,1.896,1.895,1.896       c1.046,0,1.896-0.851,1.896-1.896v-5.691c0-1.873,1.523-3.396,3.396-3.396s3.396,1.523,3.396,3.396v3.73       c0,1.046,0.851,1.896,1.896,1.896s1.896-0.851,1.896-1.896V26.93L30.312,33.486z" fill="#093260"/></g><g><path d="M37.5,25.299c-0.095,0-0.188-0.018-0.278-0.053c-4.066-1.624-6.694-5.498-6.694-9.871       s2.628-8.247,6.694-9.871c0.18-0.071,0.377-0.071,0.557,0c4.067,1.625,6.696,5.499,6.696,9.871s-2.629,8.246-6.696,9.871       C37.688,25.281,37.595,25.299,37.5,25.299z M37.5,7.014c-3.335,1.457-5.473,4.707-5.473,8.361s2.138,6.904,5.473,8.361       c3.336-1.458,5.475-4.707,5.475-8.361S40.836,8.472,37.5,7.014z" fill="#EE8313"/></g></g></g></g></g></svg>