<?xml version="1.0" encoding="iso-8859-1"?>
<!-- Generator: Adobe Illustrator 16.0.0, SVG Export Plug-In . SVG Version: 6.00 Build 0)  -->
<!DOCTYPE svg PUBLIC "-//W3C//DTD SVG 1.1//EN" "http://www.w3.org/Graphics/SVG/1.1/DTD/svg11.dtd">
<svg version="1.1" id="Capa_1" xmlns="http://www.w3.org/2000/svg" xmlns:xlink="http://www.w3.org/1999/xlink" x="0px" y="0px"
	 width="13.738px" height="13.738px" viewBox="0 0 59.783 59.783" style="enable-background:new 0 0 59.783 59.783;"
	 xml:space="preserve">
<g>
	<g>
		<path fill="#d9541e" d="M37.556,18.921c0.336-0.759-0.01-1.646-0.768-1.979c-0.756-0.335-1.646,0.009-1.979,0.769l-4.389,9.938l-4.401-8.678
			c-0.012-0.023-0.03-0.044-0.043-0.066c-0.026-0.046-0.054-0.09-0.084-0.132c-0.028-0.039-0.058-0.075-0.09-0.111
			c-0.032-0.036-0.066-0.07-0.101-0.104c-0.037-0.035-0.076-0.066-0.116-0.098c-0.036-0.027-0.074-0.053-0.113-0.077
			c-0.047-0.029-0.094-0.056-0.144-0.078c-0.023-0.012-0.042-0.025-0.066-0.036c-0.018-0.008-0.037-0.01-0.056-0.018
			c-0.049-0.019-0.098-0.032-0.148-0.046c-0.049-0.014-0.097-0.024-0.146-0.032c-0.043-0.008-0.085-0.011-0.129-0.014
			c-0.055-0.004-0.11-0.008-0.164-0.006c-0.041,0.003-0.081,0.008-0.121,0.013c-0.057,0.008-0.112,0.016-0.167,0.028
			c-0.039,0.01-0.076,0.022-0.114,0.034c-0.057,0.02-0.112,0.039-0.166,0.063c-0.016,0.008-0.033,0.012-0.048,0.02
			c-0.021,0.012-0.038,0.026-0.059,0.038c-0.05,0.028-0.098,0.06-0.144,0.093c-0.036,0.026-0.07,0.055-0.104,0.083
			c-0.038,0.034-0.075,0.069-0.11,0.106c-0.034,0.035-0.065,0.073-0.095,0.112c-0.028,0.037-0.055,0.074-0.079,0.114
			c-0.029,0.047-0.054,0.094-0.077,0.143c-0.011,0.022-0.026,0.044-0.036,0.066l-3.374,8.029l-3.506-9.31
			c-0.291-0.775-1.157-1.17-1.932-0.875c-0.775,0.292-1.167,1.155-0.875,1.933l4.833,12.833c0.002,0.004,0.005,0.008,0.006,0.012
			c0.049,0.127,0.119,0.246,0.201,0.354c0.019,0.024,0.037,0.05,0.057,0.072c0.086,0.103,0.18,0.194,0.293,0.271
			c0.002,0.002,0.005,0.002,0.007,0.004c0.08,0.055,0.166,0.103,0.258,0.142c0.031,0.014,0.063,0.019,0.094,0.028
			c0.031,0.01,0.061,0.021,0.093,0.028c0.131,0.036,0.263,0.06,0.393,0.06l0,0l0,0c0.001,0,0.003,0,0.004,0
			c0.166-0.002,0.326-0.034,0.48-0.088c0.015-0.006,0.03-0.004,0.044-0.008c0.101-0.039,0.195-0.088,0.283-0.145
			c0.013-0.01,0.023-0.02,0.036-0.027c0.097-0.066,0.182-0.146,0.259-0.229c0.022-0.022,0.044-0.049,0.064-0.073
			c0.082-0.104,0.152-0.215,0.204-0.334c0.002-0.006,0.006-0.011,0.009-0.015l3.578-8.513l4.368,8.609
			c0.008,0.018,0.02,0.025,0.028,0.041c0.059,0.105,0.126,0.209,0.21,0.301c0.003,0.002,0.004,0.006,0.007,0.01
			c0.082,0.086,0.179,0.16,0.283,0.227c0.032,0.021,0.065,0.037,0.098,0.058c0.036,0.021,0.068,0.044,0.107,0.06
			c0.044,0.021,0.09,0.029,0.135,0.045c0.036,0.012,0.071,0.025,0.108,0.035c0.12,0.029,0.24,0.049,0.36,0.049h0.001h0.001
			c0.13,0,0.259-0.021,0.39-0.055c0.039-0.013,0.075-0.029,0.115-0.043c0.061-0.021,0.117-0.035,0.174-0.063
			c0.029-0.017,0.055-0.037,0.081-0.054c0.03-0.02,0.062-0.037,0.091-0.059c0.098-0.066,0.187-0.143,0.264-0.229
			c0.008-0.01,0.017-0.016,0.025-0.025c0.086-0.102,0.151-0.215,0.211-0.334c0.006-0.014,0.016-0.021,0.021-0.034L37.556,18.921z"/>
		<path fill="#d9541e" d="M56.688,45.271L46.224,34.807c1.656-3.322,2.535-7.005,2.535-10.731C48.759,10.801,37.958,0,24.684,0
			C11.409,0,0.608,10.8,0.608,24.075c0,13.274,10.8,24.073,24.075,24.073c3.111,0,6.198-0.613,9.063-1.775l10.922,10.92
			c1.604,1.604,3.738,2.49,6.01,2.49s4.404-0.887,6.012-2.49C60.003,53.977,60.003,48.583,56.688,45.271z M3.607,24.075
			C3.607,12.454,13.062,3,24.683,3s21.076,9.454,21.076,21.075c0,3.6-0.928,7.153-2.682,10.282
			c-0.246,0.438-0.506,0.869-0.781,1.287c-1.926,2.93-4.543,5.33-7.639,6.998c-3.05,1.643-6.498,2.506-9.977,2.506
			C13.062,45.148,3.607,35.697,3.607,24.075z M54.567,55.17c-1.037,1.036-2.42,1.608-3.889,1.608c-1.471,0-2.852-0.572-3.891-1.608
			L36.607,44.99c0.222-0.127,0.435-0.266,0.647-0.396c0.136-0.082,0.271-0.162,0.404-0.246c0.44-0.283,0.875-0.578,1.295-0.888
			c0.039-0.026,0.074-0.06,0.11-0.086c0.382-0.282,0.753-0.58,1.115-0.887c0.131-0.109,0.258-0.228,0.387-0.341
			c0.267-0.233,0.529-0.473,0.783-0.719c0.14-0.132,0.271-0.266,0.405-0.397c0.246-0.25,0.486-0.507,0.726-0.769
			c0.117-0.129,0.238-0.259,0.354-0.393c0.287-0.33,0.563-0.67,0.834-1.018c0.052-0.064,0.109-0.131,0.16-0.197
			c0.289-0.381,0.567-0.77,0.836-1.166l9.896,9.896C56.712,49.537,56.712,53.025,54.567,55.17z"/>
	</g>
</g>
<g>
</g>
<g>
</g>
<g>
</g>
<g>
</g>
<g>
</g>
<g>
</g>
<g>
</g>
<g>
</g>
<g>
</g>
<g>
</g>
<g>
</g>
<g>
</g>
<g>
</g>
<g>
</g>
<g>
</g>
</svg>
