<?xml version="1.0" ?><!DOCTYPE svg  PUBLIC '-//W3C//DTD SVG 1.0//EN'  'http://www.w3.org/TR/2001/REC-SVG-20010904/DTD/svg10.dtd'><svg fill="#136882" enable-background="new 0 0 24 24" id="Layer_1" version="1.0" viewBox="0 0 24 24" xml:space="preserve" xmlns="http://www.w3.org/2000/svg" xmlns:xlink="http://www.w3.org/1999/xlink"><rect height="1.6" transform="matrix(0.7071 -0.7071 0.7071 0.7071 -4.9708 11.9996)" width="14.1" x="4.9" y="11.2"/><rect height="1.6" transform="matrix(0.7073 -0.707 0.707 0.7073 3.9631 15.698)" width="1.3" x="20.3" y="2.3"/><rect height="1.6" transform="matrix(-0.7073 0.707 -0.707 -0.7073 20.0312 33.5776)" width="1.3" x="2.4" y="20.2"/><rect height="9.4" transform="matrix(0.7075 -0.7067 0.7067 0.7075 -0.6013 13.8019)" width="2.8" x="15" y="2.9"/><rect height="6.3" transform="matrix(0.7075 -0.7068 0.7068 0.7075 2.0289 14.8932)" width="2.2" x="17.9" y="1.9"/><rect height="9.4" transform="matrix(-0.7075 0.7067 -0.7067 -0.7075 24.5923 22.5669)" width="2.8" x="6.2" y="11.7"/><rect height="6.3" transform="matrix(-0.7075 0.7068 -0.7068 -0.7075 21.96 28.9184)" width="2.2" x="3.9" y="15.9"/></svg>