<?xml version="1.0" encoding="UTF-8"?>
<svg xmlns="http://www.w3.org/2000/svg" xmlns:xlink="http://www.w3.org/1999/xlink" width="299pt" height="167pt" viewBox="0 0 299 167" version="1.1">
<g id="surface1">
<path style=" stroke:none;fill-rule:nonzero;fill:rgb(80%,80%,80%);fill-opacity:1;" d="M 222.089844 0.488281 L 221.933594 0.175781 C 221.855469 0.0976562 221.777344 0.0195312 221.621094 0.0195312 L 221.308594 0.0976562 C 221.152344 0.253906 221.074219 0.332031 221.074219 0.488281 L 214.421875 121.144531 L 215.441406 120.988281 L 221.855469 3.617188 L 229.523438 16.242188 L 229.445312 16.242188 C 235.234375 33.332031 237.65625 51.523438 236.71875 70.808594 L 237.1875 71.515625 L 244.777344 85 L 245.246094 85.46875 C 256.902344 95.742188 269.96875 102.640625 284.441406 106.167969 L 287.964844 111.894531 L 288.433594 112.050781 L 288.511719 111.894531 L 221.933594 2.753906 L 222.089844 0.480469 "/>
<path style=" stroke:none;fill-rule:nonzero;fill:rgb(80%,80%,80%);fill-opacity:1;" d="M 219.742188 43.0625 C 227.957031 59.917969 230.929688 85.398438 228.738281 119.503906 L 260.738281 115.585938 Z M 219.742188 43.0625 "/>
<path style=" stroke:none;fill-rule:nonzero;fill:rgb(80%,80%,80%);fill-opacity:1;" d="M 292.65625 117.152344 C 295.941406 116.761719 298.054688 116.054688 298.992188 115.035156 L 131.574219 135.5 L 131.492188 135.5 C 131.574219 142.476562 134.703125 147.964844 140.804688 151.886719 C 142.445312 153.0625 144.167969 153.925781 145.730469 154.472656 C 147.21875 152.75 148.863281 151.492188 150.816406 150.316406 L 150.894531 150.316406 C 168.421875 139.65625 194.472656 138.007812 228.894531 145.300781 L 229.285156 145.378906 C 233.042969 146.164062 236.796875 147.101562 240.320312 148.199219 C 241.335938 148.359375 242.195312 148.042969 242.898438 147.417969 C 244.152344 146.476562 245.714844 145.769531 247.828125 145.300781 L 247.828125 145.222656 C 253.382812 135.34375 260.894531 128.050781 270.28125 123.269531 C 276.777344 120.054688 284.285156 117.9375 292.65625 117.152344 "/>
<path style=" stroke:none;fill-rule:nonzero;fill:rgb(80%,80%,80%);fill-opacity:1;" d="M 212.230469 120.210938 L 219.898438 2.449219 C 208.789062 45.414062 190.953125 85.554688 166.464844 122.796875 L 212.230469 120.210938 "/>
<path style=" stroke:none;fill-rule:nonzero;fill:rgb(80%,80%,80%);fill-opacity:1;" d="M 169.125 25.34375 L 168.8125 25.1875 L 168.5 25.265625 L 168.34375 25.65625 L 162.003906 127.582031 L 162.945312 127.503906 L 169.28125 25.65625 L 169.125 25.34375 "/>
<path style=" stroke:none;fill-rule:nonzero;fill:rgb(80%,80%,80%);fill-opacity:1;" d="M 160.207031 125.386719 L 166.933594 25.96875 L 131.492188 128.441406 L 160.207031 125.386719 "/>
<path style="fill:none;stroke-width:12;stroke-linecap:round;stroke-linejoin:round;stroke:rgb(80%,80%,80%);stroke-opacity:1;stroke-miterlimit:4;" d="M 2102.594194 2057.956961 C 1987.587531 2112.927769 1904.140364 2122.055763 1851.185462 2088.48503 C 1798.281381 2052.885853 1716.81621 2060.999626 1606.942412 2112.927769 " transform="matrix(0.0768638,0,0,0.0770295,0,0)"/>
<path style="fill:none;stroke-width:12;stroke-linecap:round;stroke-linejoin:round;stroke:rgb(80%,80%,80%);stroke-opacity:1;stroke-miterlimit:4;" d="M 2372.349106 2066.070734 C 2350.9537 2058.971183 2327.525476 2053.900075 2303.131663 2051.820921 C 2253.225988 2047.764034 2193.207044 2067.135666 2122.973192 2108.870883 C 2052.739339 2151.569611 1968.224943 2167.898578 1867.498824 2158.719873 " transform="matrix(0.0768638,0,0,0.0770295,0,0)"/>
<path style="fill:none;stroke-width:12;stroke-linecap:round;stroke-linejoin:round;stroke:rgb(80%,80%,80%);stroke-opacity:1;stroke-miterlimit:4;" d="M 3000.337322 1962.265157 C 2515.815217 1862.516467 2166.729593 1885.944985 1952.97881 2033.514222 " transform="matrix(0.0768638,0,0,0.0770295,0,0)"/>
<path style="fill:none;stroke-width:12;stroke-linecap:round;stroke-linejoin:round;stroke:rgb(80%,80%,80%);stroke-opacity:1;stroke-miterlimit:4;" d="M 3305.666545 2010.136415 C 3284.321959 2001.971931 3260.893734 1996.900823 3236.449101 1995.886602 C 3186.594246 1991.779004 3126.575303 2011.150636 3056.341451 2052.885853 C 2986.107598 2094.570359 2901.593201 2110.899326 2800.816263 2102.734843 " transform="matrix(0.0768638,0,0,0.0770295,0,0)"/>
<path style="fill:none;stroke-width:29;stroke-linecap:round;stroke-linejoin:round;stroke:rgb(80%,80%,80%);stroke-opacity:1;stroke-miterlimit:4;" d="M 2655.266513 341.234843 C 2605.411659 310.656063 2553.523986 318.820546 2499.552676 366.641093 C 2452.747047 318.820546 2403.908602 310.656063 2352.986518 341.234843 " transform="matrix(0.0768638,0,0,0.0770295,0,0)"/>
<path style="fill:none;stroke-width:29;stroke-linecap:round;stroke-linejoin:round;stroke:rgb(80%,80%,80%);stroke-opacity:1;stroke-miterlimit:4;" d="M 2542.292668 170.237088 C 2491.421405 139.709019 2441.56655 151.879678 2390.644466 206.850487 C 2340.789611 151.879678 2289.867527 139.709019 2238.996264 170.237088 " transform="matrix(0.0768638,0,0,0.0770295,0,0)"/>
<path style=" stroke:none;fill-rule:nonzero;fill:rgb(42.352941%,47.058824%,68.627451%);fill-opacity:1;" d="M 4.363281 135.871094 L 14.734375 135.871094 C 17.847656 135.871094 20.136719 136.757812 21.597656 138.535156 C 23.058594 140.3125 23.53125 142.789062 23.019531 145.96875 C 22.808594 147.269531 22.433594 148.46875 21.894531 149.558594 C 21.351562 150.648438 20.640625 151.640625 19.753906 152.542969 C 18.699219 153.625 17.519531 154.402344 16.210938 154.871094 C 14.90625 155.339844 13.234375 155.574219 11.199219 155.574219 L 6.578125 155.574219 L 5.429688 162.699219 L 0.0351562 162.699219 Z M 9.070312 140.113281 L 7.257812 151.367188 L 10.535156 151.367188 C 12.710938 151.367188 14.324219 150.921875 15.371094 150.03125 C 16.421875 149.140625 17.113281 147.660156 17.445312 145.585938 C 17.769531 143.585938 17.582031 142.171875 16.886719 141.347656 C 16.1875 140.527344 14.816406 140.113281 12.765625 140.113281 L 9.070312 140.113281 "/>
<path style=" stroke:none;fill-rule:nonzero;fill:rgb(42.352941%,47.058824%,68.627451%);fill-opacity:1;" d="M 29.074219 128.742188 L 34.425781 128.742188 L 33.277344 135.871094 L 38.039062 135.871094 C 41.035156 135.871094 43.113281 136.4375 44.269531 137.574219 C 45.429688 138.714844 45.804688 140.546875 45.394531 143.078125 L 43.378906 155.574219 L 37.945312 155.574219 L 39.863281 143.679688 C 40.082031 142.328125 39.976562 141.410156 39.546875 140.921875 C 39.117188 140.4375 38.21875 140.191406 36.851562 140.191406 L 32.578125 140.191406 L 30.097656 155.574219 L 24.746094 155.574219 L 29.074219 128.742188 "/>
<path style=" stroke:none;fill-rule:nonzero;fill:rgb(42.352941%,47.058824%,68.627451%);fill-opacity:1;" d="M 51.226562 135.871094 L 61.59375 135.871094 C 64.710938 135.871094 67 136.757812 68.460938 138.535156 C 69.917969 140.3125 70.390625 142.789062 69.878906 145.96875 C 69.671875 147.269531 69.292969 148.46875 68.753906 149.558594 C 68.214844 150.648438 67.5 151.640625 66.613281 152.542969 C 65.558594 153.625 64.378906 154.402344 63.074219 154.871094 C 61.765625 155.339844 60.09375 155.574219 58.058594 155.574219 L 53.441406 155.574219 L 52.289062 162.699219 L 46.898438 162.699219 Z M 55.933594 140.113281 L 54.117188 151.367188 L 57.398438 151.367188 C 59.574219 151.367188 61.183594 150.921875 62.234375 150.03125 C 63.28125 149.140625 63.972656 147.660156 64.308594 145.585938 C 64.628906 143.585938 64.441406 142.171875 63.746094 141.347656 C 63.050781 140.527344 61.675781 140.113281 59.628906 140.113281 L 55.933594 140.113281 "/>
<path style=" stroke:none;fill-rule:nonzero;fill:rgb(97.254902%,61.176471%,5.490196%);fill-opacity:1;" d="M 78.996094 123.042969 L 89.371094 123.042969 L 93.925781 147.988281 L 106.53125 123.042969 L 116.863281 123.042969 L 111.621094 155.550781 L 104.695312 155.550781 L 109.351562 130.230469 L 96.640625 155.550781 L 89.136719 155.550781 L 84.363281 129.964844 L 80.945312 155.550781 L 73.753906 155.550781 L 78.996094 123.042969 "/>
<path style=" stroke:none;fill-rule:nonzero;fill:rgb(97.254902%,61.176471%,5.490196%);fill-opacity:1;" d="M 129.3125 150.289062 L 134.546875 150.289062 L 137.546875 131.675781 L 144.058594 131.675781 L 140.3125 154.910156 C 139.804688 158.070312 138.664062 160.410156 136.894531 161.929688 C 135.125 163.449219 132.671875 164.210938 129.535156 164.210938 L 116.769531 164.210938 L 117.550781 159.375 L 129.195312 159.375 C 130.445312 159.375 131.453125 159.082031 132.21875 158.496094 C 132.980469 157.910156 133.453125 157.0625 133.632812 155.953125 L 133.699219 155.550781 L 127.9375 155.550781 C 124.25 155.550781 121.738281 154.847656 120.398438 153.441406 C 119.054688 152.03125 118.652344 149.683594 119.179688 146.394531 L 121.554688 131.675781 L 127.992188 131.675781 L 125.695312 145.910156 C 125.40625 147.707031 125.492188 148.890625 125.960938 149.449219 C 126.425781 150.011719 127.542969 150.289062 129.3125 150.289062 "/>
<path style=" stroke:none;fill-rule:nonzero;fill:rgb(97.254902%,61.176471%,5.490196%);fill-opacity:1;" d="M 161.589844 123.042969 L 169.085938 123.042969 L 178.171875 155.550781 L 170.308594 155.550781 L 168.472656 147.8125 L 153.871094 147.8125 L 149.628906 155.550781 L 142.132812 155.550781 Z M 164.023438 129.496094 L 157.09375 142.007812 L 167.101562 142.007812 L 164.023438 129.496094 "/>
<path style=" stroke:none;fill-rule:nonzero;fill:rgb(97.254902%,61.176471%,5.490196%);fill-opacity:1;" d="M 202.714844 155.550781 L 190.207031 155.550781 C 186.429688 155.550781 183.652344 154.476562 181.882812 152.320312 C 180.109375 150.167969 179.535156 147.164062 180.15625 143.316406 C 180.414062 141.738281 180.867188 140.289062 181.523438 138.96875 C 182.175781 137.648438 183.042969 136.441406 184.117188 135.347656 C 185.394531 134.035156 186.832031 133.097656 188.421875 132.527344 C 190.015625 131.960938 192.039062 131.675781 194.492188 131.675781 L 200.078125 131.675781 L 201.46875 123.042969 L 207.957031 123.042969 Z M 197.054688 150.433594 L 199.25 136.820312 L 195.3125 136.820312 C 192.671875 136.820312 190.710938 137.355469 189.433594 138.425781 C 188.15625 139.492188 187.3125 141.277344 186.910156 143.769531 C 186.519531 146.191406 186.75 147.90625 187.605469 148.917969 C 188.457031 149.925781 190.117188 150.433594 192.589844 150.433594 L 197.054688 150.433594 "/>
<path style=" stroke:none;fill-rule:nonzero;fill:rgb(97.254902%,61.176471%,5.490196%);fill-opacity:1;" d="M 212.222656 131.675781 L 237.222656 131.675781 C 240.847656 131.675781 243.347656 132.363281 244.726562 133.734375 C 246.101562 135.105469 246.542969 137.332031 246.046875 140.410156 L 243.605469 155.550781 L 237.046875 155.550781 L 239.355469 141.230469 C 239.636719 139.472656 239.550781 138.316406 239.09375 137.753906 C 238.636719 137.195312 237.554688 136.914062 235.851562 136.914062 L 232.199219 136.914062 L 229.195312 155.550781 L 222.539062 155.550781 L 225.542969 136.914062 L 217.9375 136.914062 L 214.929688 155.550781 L 208.371094 155.550781 L 212.222656 131.675781 "/>
<path style=" stroke:none;fill-rule:nonzero;fill:rgb(97.254902%,61.176471%,5.490196%);fill-opacity:1;" d="M 260.542969 128.960938 L 253.714844 128.960938 L 254.667969 123.042969 L 261.496094 123.042969 Z M 256.253906 155.550781 L 249.425781 155.550781 L 253.277344 131.675781 L 260.101562 131.675781 L 256.253906 155.550781 "/>
<path style=" stroke:none;fill-rule:nonzero;fill:rgb(97.254902%,61.176471%,5.490196%);fill-opacity:1;" d="M 265.734375 131.675781 L 277.984375 131.675781 C 281.683594 131.675781 284.21875 132.351562 285.585938 133.699219 C 286.953125 135.046875 287.382812 137.285156 286.878906 140.410156 L 284.4375 155.550781 L 277.925781 155.550781 L 280.246094 141.1875 C 280.53125 139.398438 280.433594 138.242188 279.949219 137.710938 C 279.460938 137.179688 278.355469 136.914062 276.636719 136.914062 L 271.398438 136.914062 L 268.394531 155.550781 L 261.882812 155.550781 L 265.734375 131.675781 "/>
</g>
</svg>
